<?xml version="1.0" encoding="utf-8"?>
<!-- Generator: Adobe Illustrator 18.0.0, SVG Export Plug-In . SVG Version: 6.00 Build 0)  -->
<!DOCTYPE svg PUBLIC "-//W3C//DTD SVG 1.1//EN" "http://www.w3.org/Graphics/SVG/1.1/DTD/svg11.dtd">
<svg version="1.1" id="Layer_1" xmlns="http://www.w3.org/2000/svg" xmlns:xlink="http://www.w3.org/1999/xlink" x="0px" y="0px"
	 viewBox="339.3 -0.4 135.9 134.3" enable-background="new 339.3 -0.4 135.9 134.3" xml:space="preserve">
<g id="Layer_4">
	<g>
		<g>
			<defs>
				<path id="SVGID_1_" d="M443.4,133.9h-73.8c-16.7,0-30.2-13.7-30.2-30.2V29.9c0-16.7,13.5-30.2,30.2-30.2h73.8
					c16.7,0,30.2,13.5,30.2,30.2v35.5v38.4C473.6,120.4,459.9,133.9,443.4,133.9z"/>
			</defs>
			<clipPath id="SVGID_2_">
				<use xlink:href="#SVGID_1_"  overflow="visible"/>
			</clipPath>
			<path clip-path="url(#SVGID_2_)" fill="#76D6C4" d="M443.4,133.9h-73.8c-16.7,0-30.2-13.7-30.2-30.2V29.9
				c0-16.7,13.5-30.2,30.2-30.2h73.8c16.7,0,30.2,13.5,30.2,30.2v73.8C473.6,120.4,459.9,133.9,443.4,133.9z"/>
		</g>
	</g>
	<g>
		<g>
			<defs>
				<path id="SVGID_3_" d="M443.4,133.9h-73.8c-16.7,0-30.2-13.7-30.2-30.2V29.9c0-16.7,13.5-30.2,30.2-30.2h73.8
					c16.7,0,30.2,13.5,30.2,30.2v35.5v38.4C473.6,120.4,459.9,133.9,443.4,133.9z"/>
			</defs>
			<clipPath id="SVGID_4_">
				<use xlink:href="#SVGID_3_"  overflow="visible"/>
			</clipPath>
			<path clip-path="url(#SVGID_4_)" fill="#17917A" d="M444.5,133.9h-75c-16,0-29.1-13.1-29.1-29.1V30.1c0-16,13.1-29.1,29.1-29.1
				h75c16,0,29.1,13.1,29.1,29.1v74.8C473.6,120.8,460.5,133.9,444.5,133.9z"/>
		</g>
	</g>
	<g>
		<g>
			<defs>
				<path id="SVGID_5_" d="M443.4,133.9h-73.8c-16.7,0-30.2-13.7-30.2-30.2V29.9c0-16.7,13.5-30.2,30.2-30.2h73.8
					c16.7,0,30.2,13.5,30.2,30.2v35.5v38.4C473.6,120.4,459.9,133.9,443.4,133.9z"/>
			</defs>
			<clipPath id="SVGID_6_">
				<use xlink:href="#SVGID_5_"  overflow="visible"/>
			</clipPath>
			<path clip-path="url(#SVGID_6_)" fill="#1BA58B" d="M443.3,132.7h-73.7c-16,0-29.1-13.1-29.1-29.1V30.1c0-16,13.1-29.1,29.1-29.1
				h73.7c16,0,29.1,13.1,29.1,29.1v73.5C472.3,119.6,459.2,132.7,443.3,132.7z"/>
		</g>
	</g>
	<g>
		<g>
			<defs>
				<path id="SVGID_7_" d="M443.4,133.9h-73.8c-16.7,0-30.2-13.7-30.2-30.2V29.9c0-16.7,13.5-30.2,30.2-30.2h73.8
					c16.7,0,30.2,13.5,30.2,30.2v35.5v38.4C473.6,120.4,459.9,133.9,443.4,133.9z"/>
			</defs>
			<clipPath id="SVGID_8_">
				<use xlink:href="#SVGID_7_"  overflow="visible"/>
			</clipPath>
			<polygon opacity="0.3" clip-path="url(#SVGID_8_)" fill="#231F20" enable-background="new    " points="477.6,5.8 492.9,55.8 
				492.9,127.4 413.5,156.6 331,125.7 			"/>
		</g>
	</g>
</g>
<g id="Layer_2">
	<path display="none" opacity="0.8" fill="#A7A9AC" enable-background="new    " d="M460.7,61.3l-5.4,0.3c-0.3-1.7-0.7-3.3-1.1-5
		l5-1.9c-0.3-1.4-0.8-2.8-1.4-4.1l-5.2,1.5c-0.7-1.5-1.4-3.2-2.1-4.7l4.6-2.9c-0.7-1.2-1.4-2.5-2.1-3.7l-5,2.6
		c-0.9-1.5-1.9-2.8-3-4.1l3.9-3.9c-0.9-1.1-1.9-2.1-2.9-3.2l-4.3,3.6c-1.2-1.2-2.5-2.3-3.8-3.3l3.2-4.7c-1.1-0.9-2.2-1.7-3.5-2.6
		l-3.5,4.3c-1.5-0.9-2.9-1.8-4.4-2.6l2.1-5.2c-1.2-0.7-2.6-1.2-3.9-1.7l-2.6,5c-1.5-0.6-3.2-1.1-4.8-1.5l0.9-5.6
		c-1.4-0.3-2.8-0.7-4.3-0.9l-1.5,5.5c-1.7-0.3-3.3-0.4-5-0.4l-0.3-5.7c-0.7,0-1.2,0-1.9,0c-0.8,0-1.5,0-2.3,0.1l-0.3,5.7
		c-1.7,0.1-3.3,0.3-5,0.6l-1.4-5.5c-1.5,0.3-2.8,0.6-4.3,0.9l0.9,5.6c-1.7,0.4-3.2,1-4.8,1.5l-2.5-5c-1.4,0.6-2.6,1.1-3.9,1.8
		l2.1,5.2c-1.5,0.8-2.9,1.5-4.4,2.5l-3.6-4.4c-1.2,0.8-2.3,1.7-3.5,2.6l3.2,4.7c-1.4,1-2.6,2.1-3.7,3.3l-4.4-3.6
		c-1,1-2.1,2.1-2.9,3.2l4,3.9c-1,1.4-2.1,2.6-2.9,4l-5-2.6c-0.8,1.2-1.5,2.5-2.1,3.8l4.7,3c-0.8,1.5-1.5,3-2.1,4.6l-5.4-1.5
		c-0.4,1.4-0.9,2.6-1.4,4.1l5.1,1.9c-0.4,1.5-0.8,3.2-1.1,5l-5.4-0.3c-0.3,1.5-0.3,2.9-0.4,4.4l5.4,0.8c0,0.9-0.1,1.9-0.1,2.8
		c0,0.8,0,1.5,0.1,2.2l-5.2,0.8c0.1,1.5,0.3,2.9,0.4,4.4l5.2-0.3c0.3,1.7,0.6,3.3,1,5l-5,1.9c0.3,1.5,0.8,2.8,1.4,4.1l5-1.5
		c0.6,1.5,1.2,3.2,2.1,4.7l-4.4,2.8c0.7,1.2,1.5,2.6,2.1,3.8l4.6-2.3c0.9,1.5,1.9,2.8,3,4.1l-3.7,3.6c0.9,1.1,1.9,2.2,2.9,3.2
		l3.9-3.2c1.2,1.2,2.5,2.3,3.8,3.5l-2.8,4.3c1.1,0.9,2.2,1.8,3.5,2.6l3.2-3.9c1.5,0.9,2.9,1.8,4.4,2.6l-1.9,4.7
		c1.4,0.7,2.6,1.2,3.9,1.8l2.2-4.4c1.5,0.7,3.2,1.2,5,1.7l-0.8,5c1.4,0.3,2.8,0.7,4.3,0.9l1.2-4.8c1.7,0.3,3.3,0.4,5.1,0.6l0.3,5
		c0.8,0,1.5,0.1,2.3,0.1c0.7,0,1.4,0,1.9,0l0.3-5c1.8-0.1,3.5-0.3,5.1-0.6l1.2,4.8c1.5-0.3,2.8-0.6,4.3-0.9l-0.8-5
		c1.7-0.4,3.3-1,5-1.5l2.2,4.4c1.4-0.6,2.6-1.1,3.9-1.7l-1.8-4.7c1.5-0.8,3-1.7,4.4-2.6l3.2,3.9c1.2-0.8,2.3-1.7,3.5-2.6l-2.6-4.4
		c1.4-1.1,2.6-2.2,3.9-3.5l3.9,3.2c1-1,2.1-2.1,2.9-3.2l-3.7-3.6c1.1-1.4,2.1-2.8,3-4.3l4.6,2.3c0.8-1.2,1.5-2.5,2.1-3.7l-4.4-2.8
		c0.8-1.5,1.5-3.2,2.1-4.8l5,1.4c0.4-1.4,0.9-2.6,1.4-4.1l-5-1.8c0.4-1.7,0.8-3.3,1-5.1l5.2,0.3c0.3-1.5,0.3-2.8,0.4-4.3l-5.2-0.8
		c0-0.8,0.1-1.5,0.1-2.3c0-1,0-1.9-0.1-2.9l5.2-0.8C461,64.1,461,62.7,460.7,61.3z"/>
</g>
<g id="Layer_2_copy">
	<path fill="#FFFFFF" d="M458.5,59.1l-5.4,0.3c-0.3-1.7-0.7-3.3-1.1-5l5-1.9c-0.3-1.4-0.8-2.8-1.4-4.1l-5.2,1.5
		c-0.7-1.5-1.4-3.2-2.1-4.7l4.6-2.9c-0.7-1.2-1.4-2.5-2.1-3.7l-5,2.6c-0.9-1.5-1.9-2.8-3-4.1l3.9-3.9c-0.9-1.1-1.9-2.1-2.9-3.2
		l-4.3,3.6c-1.2-1.2-2.5-2.3-3.8-3.3l3.2-4.7c-1.1-0.9-2.2-1.7-3.5-2.6l-3.5,4.3c-1.5-0.9-2.9-1.8-4.4-2.6l2.1-5.2
		c-1.2-0.7-2.6-1.2-3.9-1.7l-2.6,5c-1.5-0.6-3.2-1.1-4.8-1.5l0.9-5.6c-1.4-0.3-2.8-0.7-4.3-0.9l-1.5,5.5c-1.7-0.3-3.3-0.4-5-0.4
		l-0.3-5.7c-0.7,0-1.2,0-1.9,0c-0.8,0-1.5,0-2.3,0.1l-0.3,5.7c-1.7,0.1-3.3,0.3-5,0.6l-1.4-5.5c-1.5,0.3-2.8,0.6-4.3,0.9l0.9,5.6
		c-1.7,0.4-3.2,1-4.8,1.5l-2.5-5c-1.4,0.6-2.6,1.1-3.9,1.8l2.1,5.2c-1.5,0.8-2.9,1.5-4.4,2.5l-3.6-4.4c-1.2,0.8-2.3,1.7-3.5,2.6
		l3.2,4.7c-1.4,1-2.6,2.1-3.7,3.3l-4.4-3.6c-1,1-2.1,2.1-2.9,3.2l4,3.9c-1,1.4-2.1,2.6-2.9,4l-5-2.6c-0.8,1.2-1.5,2.5-2.1,3.8l4.7,3
		c-0.8,1.5-1.5,3-2.1,4.6l-5.4-1.5c-0.4,1.4-0.9,2.6-1.4,4.1l5.1,1.9c-0.4,1.5-0.8,3.2-1.1,5l-5.4-0.3c-0.3,1.5-0.3,2.9-0.4,4.4
		l5.4,0.8c0,0.9-0.1,1.9-0.1,2.8c0,0.8,0,1.5,0.1,2.2l-5.2,0.8c0.1,1.5,0.3,2.9,0.4,4.4l5.2-0.3c0.3,1.7,0.6,3.3,1,5l-5,1.9
		c0.3,1.5,0.8,2.8,1.4,4.1l5-1.5c0.6,1.5,1.2,3.2,2.1,4.7l-4.4,2.8c0.7,1.2,1.5,2.6,2.1,3.8l4.6-2.3c0.9,1.5,1.9,2.8,3,4.1l-3.7,3.6
		c0.9,1.1,1.9,2.2,2.9,3.2l3.9-3.2c1.2,1.2,2.5,2.3,3.8,3.5l-2.8,4.3c1.1,0.9,2.2,1.8,3.5,2.6l3.2-3.9c1.5,0.9,2.9,1.8,4.4,2.6
		l-1.9,4.7c1.4,0.7,2.6,1.2,3.9,1.8l2.2-4.4c1.5,0.7,3.2,1.2,5,1.7l-0.8,5c1.4,0.3,2.8,0.7,4.3,0.9l1.2-4.8c1.7,0.3,3.3,0.4,5.1,0.6
		l0.3,5c0.8,0,1.5,0.1,2.3,0.1c0.7,0,1.4,0,1.9,0l0.3-5c1.8-0.1,3.5-0.3,5.1-0.6l1.2,4.8c1.5-0.3,2.8-0.6,4.3-0.9l-0.8-5
		c1.7-0.4,3.3-1,5-1.5l2.2,4.4c1.4-0.6,2.6-1.1,3.9-1.7l-1.8-4.7c1.5-0.8,3-1.7,4.4-2.6l3.2,3.9c1.2-0.8,2.3-1.7,3.5-2.6l-2.6-4.4
		c1.4-1.1,2.6-2.2,3.9-3.5l3.9,3.2c1-1,2.1-2.1,2.9-3.2l-3.7-3.6c1.1-1.4,2.1-2.8,3-4.3l4.6,2.3c0.8-1.2,1.5-2.5,2.1-3.7l-4.4-2.8
		c0.8-1.5,1.5-3.2,2.1-4.8l5,1.4c0.4-1.4,0.9-2.6,1.4-4.1l-5-1.8c0.4-1.7,0.8-3.3,1-5.1l5.2,0.3c0.3-1.5,0.3-2.8,0.4-4.3l-5.2-0.8
		c0-0.8,0.1-1.5,0.1-2.3c0-1,0-1.9-0.1-2.9l5.2-0.8C458.8,61.9,458.7,60.5,458.5,59.1z"/>
</g>
<g id="Layer_3">
	<path display="none" fill="#A7A9AC" d="M442.2,66.4c0,12.8-5.7,20.6-10.6,25.5c-10.5,10.5-15,12.6-24.5,20.1
		c-4.8,3.7,3.6-10.9,0.4-10.9c-19.1,0-34.7-15.6-34.7-34.7s15.6-34.7,34.7-34.7C426.6,31.7,442.2,47.4,442.2,66.4z"/>
</g>
<g id="Layer_3_copy">
	<path fill="#1BA58B" d="M441,65.3c0,12.8-5.7,20.6-10.6,25.5c-10.5,10.5-15,12.6-24.5,20.1c-4.8,3.7,3.6-10.9,0.4-10.9
		c-19.1,0-34.7-15.6-34.7-34.7s15.6-34.7,34.7-34.7C425.5,30.6,441,46.3,441,65.3z"/>
</g>
<g id="Layer_1_1_" display="none">
	<g display="inline">
		<path fill="none" stroke="#6D6E71" stroke-width="0.25" stroke-miterlimit="10" d="M474.4,103.7c0,16.6-13.4,30.1-29.8,30.1h-74.4
			c-16.4,0-29.8-13.5-29.8-30.1V29.8c0-16.6,13.4-30.1,29.8-30.1h74.4c16.4,0,29.8,13.5,29.8,30.1L474.4,103.7L474.4,103.7z"/>
		<ellipse fill="none" stroke="#6D6E71" stroke-width="0.25" stroke-miterlimit="10" cx="407.3" cy="66.7" rx="24.5" ry="24.5"/>
		<ellipse fill="none" stroke="#6D6E71" stroke-width="0.25" stroke-miterlimit="10" cx="407.3" cy="66.7" rx="34.9" ry="35"/>
		<ellipse fill="none" stroke="#6D6E71" stroke-width="0.25" stroke-miterlimit="10" cx="407.3" cy="66.7" rx="52.3" ry="52.6"/>
		<line fill="none" stroke="#6D6E71" stroke-width="0.25" stroke-miterlimit="10" x1="340.2" y1="8.4" x2="473.7" y2="8.4"/>
		<line fill="none" stroke="#6D6E71" stroke-width="0.25" stroke-miterlimit="10" x1="340.4" y1="42.1" x2="474.1" y2="42.1"/>
		<line fill="none" stroke="#6D6E71" stroke-width="0.25" stroke-miterlimit="10" x1="339.9" y1="91.3" x2="473.6" y2="91.3"/>
		<line fill="none" stroke="#6D6E71" stroke-width="0.25" stroke-miterlimit="10" x1="340.2" y1="66.7" x2="474.4" y2="66.7"/>
		<line fill="none" stroke="#6D6E71" stroke-width="0.25" stroke-miterlimit="10" x1="339.9" y1="125" x2="473.4" y2="125"/>
		<line fill="none" stroke="#6D6E71" stroke-width="0.25" stroke-miterlimit="10" x1="431.6" y1="-0.1" x2="431.6" y2="133.8"/>
		<line fill="none" stroke="#6D6E71" stroke-width="0.25" stroke-miterlimit="10" x1="382.7" y1="-0.1" x2="382.7" y2="133.8"/>
		<line fill="none" stroke="#6D6E71" stroke-width="0.25" stroke-miterlimit="10" x1="407.3" y1="-0.1" x2="407.3" y2="133.8"/>
		<line fill="none" stroke="#6D6E71" stroke-width="0.25" stroke-miterlimit="10" x1="465.1" y1="-0.4" x2="465.1" y2="133.7"/>
		<line fill="none" stroke="#6D6E71" stroke-width="0.25" stroke-miterlimit="10" x1="349.1" y1="-0.4" x2="349.1" y2="133.7"/>
		<line fill="none" stroke="#6D6E71" stroke-width="0.25" stroke-miterlimit="10" x1="340.5" y1="133.7" x2="474" y2="-0.3"/>
		<line fill="none" stroke="#6D6E71" stroke-width="0.25" stroke-miterlimit="10" x1="474" y1="133.7" x2="340.5" y2="-0.3"/>
	</g>
</g>
</svg>
